leg6dof9musc_states
version=1
nRows=31
nColumns=15
inDegrees=yes

# SIMM Motion File Header:
name leg6dof9musc_states
datacolumns 15
datarows 31
otherdata 1
range 1.13800000 1.16800000
endheader
time	pelvis_tilt	pelvis_tx	pelvis_ty	hip_flexion_r	knee_angle_r	knee_angle_pat_r	ankle_angle_r	pelvis_tilt_u	pelvis_tx_u	pelvis_ty_u	hip_flexion_r_u	knee_angle_r_u	knee_angle_pat_r_u	ankle_angle_r_u
      1.13800000	     -0.38829184	      0.00663184	      1.07475353	     -6.17855639	    -11.18140966	    -11.18133656	     16.56553703	     -4.33230277	     -0.12487842	     -0.15096821	    -77.48266010	     20.00556108	     20.00576815	     41.57439473
      1.13900000	     -0.39246863	      0.00650715	      1.07460251	     -6.25614061	    -11.16166735	    -11.16159404	     16.60705037	     -4.02151300	     -0.12450507	     -0.15108685	    -77.68440336	     19.47733536	     19.47754244	     41.45172423
      1.14000000	     -0.39633538	      0.00638283	      1.07445136	     -6.33392249	    -11.14245844	    -11.14238492	     16.64844270	     -3.71227138	     -0.12412704	     -0.15119234	    -77.87797598	     18.93878020	     18.93898727	     41.33244000
      1.14100000	     -0.39989377	      0.00625890	      1.07430012	     -6.41189379	    -11.12379318	    -11.12371946	     16.68971783	     -3.40486161	     -0.12374446	     -0.15128540	    -78.06318488	     18.39005412	     18.39026119	     41.21735485
      1.14200000	     -0.40314580	      0.00613535	      1.07414880	     -6.49004602	    -11.10568166	    -11.10560774	     16.73087993	     -3.09957321	     -0.12335704	     -0.15136613	    -78.23983234	     17.83132407	     17.83153114	     41.10639149
      1.14300000	     -0.40609377	      0.00601218	      1.07399740	     -6.56837044	    -11.08813379	    -11.08805966	     16.77192487	     -2.79680598	     -0.12296422	     -0.15143404	    -78.40751436	     17.26279297	     17.26300005	     40.98308140
      1.14400000	     -0.40874036	      0.00588942	      1.07384593	     -6.64685799	    -11.07115928	    -11.07108494	     16.81284038	     -2.49685005	     -0.12256591	     -0.15148958	    -78.56606420	     16.68463207	     16.68483914	     40.84760277
      1.14500000	     -0.41108846	      0.00576705	      1.07369442	     -6.72549956	    -11.05476769	    -11.05469315	     16.85362272	     -2.19988946	     -0.12216246	     -0.15153406	    -78.71554072	     16.09698479	     16.09719186	     40.71682846
      1.14600000	     -0.41314122	      0.00564510	      1.07354287	     -6.80428601	    -11.03896841	    -11.03889366	     16.89427713	     -1.90620968	     -0.12175399	     -0.15156822	    -78.85579585	     15.50004260	     15.50024967	     40.59176744
      1.14700000	     -0.41490207	      0.00552355	      1.07339129	     -6.88320804	    -11.02377064	    -11.02369568	     16.93480936	     -1.61610318	     -0.12134018	     -0.15159218	    -78.98667934	     14.89399928	     14.89420636	     40.47249848
      1.14800000	     -0.41637476	      0.00540242	      1.07323969	     -6.96225610	    -11.00918338	    -11.00910821	     16.97521654	     -1.32996518	     -0.12092045	     -0.15160547	    -79.10783642	     14.27905670	     14.27926377	     40.34170034
      1.14900000	     -0.41756342	      0.00528171	      1.07308808	     -7.04142041	    -10.99521543	    -10.99514005	     17.01548721	     -1.04806855	     -0.12049469	     -0.15160849	    -79.21914134	     13.65540510	     13.65561217	     40.19958125
      1.15000000	     -0.41847236	      0.00516143	      1.07293647	     -7.12069115	    -10.98187541	    -10.98179983	     17.05561896	     -0.77056749	     -0.12006327	     -0.15160249	    -79.32068501	     13.02322727	     13.02343434	     40.06391433
      1.15100000	     -0.41910610	      0.00504158	      1.07278488	     -7.20005850	    -10.96917175	    -10.96909596	     17.09561875	     -0.49770931	     -0.11962628	     -0.15158810	    -79.41235533	     12.38273358	     12.38294065	     39.93571885
      1.15200000	     -0.41946940	      0.00492218	      1.07263330	     -7.27951254	    -10.95711265	    -10.95703665	     17.13549408	     -0.22975315	     -0.11918341	     -0.15156539	    -79.49404017	     11.73413375	     11.73434082	     39.81503832
      1.15300000	     -0.41956736	      0.00480322	      1.07248175	     -7.35904313	    -10.94570612	    -10.94562991	     17.17524350	      0.03294673	     -0.11873405	     -0.15153378	    -79.56542544	     11.07762621	     11.07783328	     39.68391293
      1.15400000	     -0.41940535	      0.00468471	      1.07233024	     -7.43863991	    -10.93495996	    -10.93488355	     17.21485666	      0.29016718	     -0.11827808	     -0.15149356	    -79.62641737	     10.41342262	     10.41362969	     39.54262291
      1.15500000	     -0.41898888	      0.00456667	      1.07217877	     -7.51829255	    -10.92488176	    -10.92480514	     17.25433271	      0.54181064	     -0.11781589	     -0.15144583	    -79.67713105	      9.74175251	      9.74195958	     39.40978676
      1.15600000	     -0.41832364	      0.00444908	      1.07202735	     -7.59799073	    -10.91547887	    -10.91540204	     17.29368057	      0.78769037	     -0.11734758	     -0.15139110	    -79.71748083	      9.06284890	      9.06305597	     39.28628077
      1.15700000	     -0.41741548	      0.00433197	      1.07187599	     -7.67772404	    -10.90675840	    -10.90668136	     17.33290951	      1.02760442	     -0.11687282	     -0.15132928	    -79.74738273	      8.37694221	      8.37714928	     39.17197526
      1.15800000	     -0.41627052	      0.00421534	      1.07172469	     -7.75748190	    -10.89872725	    -10.89865001	     17.37201971	      1.26126584	     -0.11639099	     -0.15125965	    -79.76655750	      7.68424274	      7.68444981	     39.04884867
      1.15900000	     -0.41489510	      0.00409919	      1.07157347	     -7.83725354	    -10.89139210	    -10.89131465	     17.41100250	      1.48851810	     -0.11590198	     -0.15118232	    -79.77493732	      6.98498949	      6.98519656	     38.91726771
      1.16000000	     -0.41329563	      0.00398354	      1.07142233	     -7.91702823	    -10.88475936	    -10.88468171	     17.44985892	      1.70932643	     -0.11540616	     -0.15109828	    -79.77265647	      6.27945623	      6.27966330	     38.79618361
      1.16100000	     -0.41147863	      0.00386838	      1.07127128	     -7.99679529	    -10.87883519	    -10.87875733	     17.48859981	      1.92357001	     -0.11490365	     -0.15100788	    -79.75965230	      5.56789709	      5.56810416	     38.68625383
      1.16200000	     -0.40945072	      0.00375373	      1.07112032	     -8.07654396	    -10.87362549	    -10.87354743	     17.52723616	      2.13111377	     -0.11439410	     -0.15091088	    -79.73586291	      4.85056008	      4.85076715	     38.58712655
      1.16300000	     -0.40721871	      0.00363960	      1.07096946	     -8.15626332	    -10.86913593	    -10.86905765	     17.56577001	      2.33175136	     -0.11387689	     -0.15080638	    -79.70104104	      4.12767559	      4.12788267	     38.48131919
      1.16400000	     -0.40478956	      0.00352598	      1.07081870	     -8.23594233	    -10.86537191	    -10.86529343	     17.60419488	      2.52539314	     -0.11335192	     -0.15069438	    -79.65513800	      3.39949397	      3.39970104	     38.36922801
      1.16500000	     -0.40217024	      0.00341290	      1.07066807	     -8.31556996	    -10.86233861	    -10.86225992	     17.64251375	      2.71205470	     -0.11281956	     -0.15057576	    -79.59829689	      2.66629353	      2.66650061	     38.26941043
      1.16600000	     -0.39936779	      0.00330035	      1.07051756	     -8.39513527	    -10.86004092	    -10.85996202	     17.68073913	      2.89167150	     -0.11227994	     -0.15045077	    -79.53046999	      1.92831752	      1.92852459	     38.18229461
      1.16700000	     -0.39638927	      0.00318834	      1.07036717	     -8.47462724	    -10.85848349	    -10.85840439	     17.71888346	      3.06417046	     -0.11173272	     -0.15031905	    -79.45160789	      1.18580174	      1.18600881	     38.10732640
      1.16800000	     -0.39324187	      0.00307688	      1.07021692	     -8.55403472	    -10.85767075	    -10.85759144	     17.75695057	      3.22942127	     -0.11117727	     -0.15017958	    -79.36149250	      0.43898456	      0.43919163	     38.02786921
